<svg xmlns="http://www.w3.org/2000/svg" version="1.1" xmlns:xlink="http://www.w3.org/1999/xlink" xmlns:svgjs="http://svgjs.dev/svgjs" width="1500" height="1500" viewBox="0 0 1500 1500"><rect width="1500" height="1500" fill="#000000"></rect><g transform="matrix(0.6666666666666666,0,0,0.6666666666666666,249.39393939393938,422.6095490310615)"><svg viewBox="0 0 396 259" data-background-color="#191552" preserveAspectRatio="xMidYMid meet" height="981" width="1500" xmlns="http://www.w3.org/2000/svg" xmlns:xlink="http://www.w3.org/1999/xlink"><g id="tight-bounds" transform="matrix(1,0,0,1,0.2400000000000091,0.1546281360169246)"><svg viewBox="0 0 395.52 258.69074372796615" height="258.69074372796615" width="395.52"><g><svg viewBox="0 0 395.52 258.69074372796615" height="258.69074372796615" width="395.52"><g transform="matrix(1,0,0,1,0,131.80321947333536)"><svg viewBox="0 0 395.52 126.88752425463082" height="126.88752425463082" width="395.52"><g id="textblocktransform"><svg viewBox="0 0 395.52 126.88752425463082" height="126.88752425463082" width="395.52" id="textblock"><g><svg viewBox="0 0 395.52 81.18429451520201" height="81.18429451520201" width="395.52"><g transform="matrix(1,0,0,1,0,0)"><svg width="395.52" viewBox="1.3416200000000016 -20.500149999999998 231.72666 47.56412" height="81.18429451520201" data-palette-color="url(#221d12a0-6b59-4550-aa5a-b0b4f47164b1)"></svg></g></svg></g><g transform="matrix(1,0,0,1,118.31980799999998,105.7627706087246)"><svg viewBox="0 0 158.88038400000002 21.12475364590623" height="21.12475364590623" width="158.88038400000002"><g transform="matrix(1,0,0,1,0,0)"><svg width="158.88038400000002" viewBox="4.85 -35.95 357.21 47.5" height="21.12475364590623" data-palette-color="#2ecc40"><path d="M12.55 0L4.85 0 4.85-32.95 12.5-32.95Q16.3-32.95 19.13-31.8 21.95-30.65 23.8-28.5 25.65-26.35 26.55-23.35 27.45-20.35 27.45-16.6L27.45-16.6Q27.45-12.85 26.55-9.78 25.65-6.7 23.8-4.53 21.95-2.35 19.15-1.18 16.35 0 12.55 0L12.55 0ZM7.15-31L7.15-1.95 12.25-1.95Q15.6-1.95 18.03-3.03 20.45-4.1 22-6.05 23.55-8 24.3-10.68 25.05-13.35 25.05-16.6L25.05-16.6Q25.05-19.8 24.3-22.45 23.55-25.1 22-27 20.45-28.9 18.03-29.95 15.6-31 12.25-31L12.25-31 7.15-31ZM37 0L34.8 0 34.8-24 37-24 37 0ZM35.95-29.8L35.95-29.8Q35.1-29.8 34.52-30.35 33.95-30.9 33.95-31.75L33.95-31.75Q33.95-32.7 34.52-33.23 35.1-33.75 35.95-33.75L35.95-33.75Q36.8-33.75 37.37-33.23 37.95-32.7 37.95-31.75L37.95-31.75Q37.95-30.9 37.37-30.35 36.8-29.8 35.95-29.8ZM54.1 11.55L54.1 11.55Q49.55 11.55 46.9 9.75 44.25 7.95 44.25 4.9L44.25 4.9Q44.25 3.3 45.2 1.8 46.15 0.3 47.8-0.9L47.8-0.9 47.8-1.1Q46.9-1.65 46.3-2.6 45.7-3.55 45.7-4.95L45.7-4.95Q45.7-6.55 46.6-7.68 47.5-8.8 48.3-9.35L48.3-9.35 48.3-9.55Q47.15-10.55 46.22-12.25 45.3-13.95 45.3-16.15L45.3-16.15Q45.3-18 45.95-19.55 46.6-21.1 47.75-22.23 48.9-23.35 50.45-23.98 52-24.6 53.75-24.6L53.75-24.6Q54.75-24.6 55.55-24.43 56.35-24.25 56.9-24L56.9-24 65.05-24 65.05-22.15 59.45-22.15Q60.59-21.15 61.35-19.58 62.1-18 62.1-16.1L62.1-16.1Q62.1-14.25 61.45-12.7 60.8-11.15 59.67-10.03 58.55-8.9 57.02-8.28 55.5-7.65 53.75-7.65L53.75-7.65Q52.75-7.65 51.67-7.9 50.6-8.15 49.75-8.65L49.75-8.65Q48.95-8 48.37-7.2 47.8-6.4 47.8-5.2L47.8-5.2Q47.8-3.9 48.75-2.98 49.7-2.05 52.4-2.05L52.4-2.05 57.55-2.05Q61.6-2.05 63.52-0.73 65.45 0.6 65.45 3.45L65.45 3.45Q65.45 5 64.65 6.48 63.85 7.95 62.37 9.08 60.9 10.2 58.8 10.88 56.7 11.55 54.1 11.55ZM53.75-9.4L53.75-9.4Q55-9.4 56.12-9.88 57.25-10.35 58.09-11.25 58.95-12.15 59.45-13.4 59.95-14.65 59.95-16.15L59.95-16.15Q59.95-17.65 59.45-18.9 58.95-20.15 58.12-21 57.3-21.85 56.15-22.33 55-22.8 53.75-22.8L53.75-22.8Q52.45-22.8 51.32-22.33 50.2-21.85 49.35-21 48.5-20.15 48-18.93 47.5-17.7 47.5-16.15L47.5-16.15Q47.5-14.65 48-13.4 48.5-12.15 49.37-11.25 50.25-10.35 51.37-9.88 52.5-9.4 53.75-9.4ZM54.35 9.75L54.35 9.75Q56.35 9.75 58 9.22 59.65 8.7 60.8 7.85 61.95 7 62.57 5.93 63.2 4.85 63.2 3.7L63.2 3.7Q63.2 1.7 61.77 0.88 60.34 0.05 57.65 0.05L57.65 0.05 52.5 0.05Q52.1 0.05 51.27-0.03 50.45-0.1 49.5-0.35L49.5-0.35Q47.85 0.8 47.1 2.1 46.35 3.4 46.35 4.7L46.35 4.7Q46.35 6.95 48.42 8.35 50.5 9.75 54.35 9.75ZM72.79 0L70.59 0 70.59-24 72.79-24 72.79 0ZM71.74-29.8L71.74-29.8Q70.89-29.8 70.32-30.35 69.74-30.9 69.74-31.75L69.74-31.75Q69.74-32.7 70.32-33.23 70.89-33.75 71.74-33.75L71.74-33.75Q72.59-33.75 73.17-33.23 73.74-32.7 73.74-31.75L73.74-31.75Q73.74-30.9 73.17-30.35 72.59-29.8 71.74-29.8ZM88.59 0.6L88.59 0.6Q86.84 0.6 85.69 0.08 84.54-0.45 83.84-1.4 83.14-2.35 82.87-3.7 82.59-5.05 82.59-6.65L82.59-6.65 82.59-22.1 78.84-22.1 78.84-23.8 82.64-24 82.94-30.95 84.84-30.95 84.84-24 91.79-24 91.79-22.1 84.84-22.1 84.84-6.45Q84.84-5.3 85.02-4.38 85.19-3.45 85.64-2.78 86.09-2.1 86.87-1.73 87.64-1.35 88.89-1.35L88.89-1.35Q89.59-1.35 90.42-1.58 91.24-1.8 91.89-2.1L91.89-2.1 92.49-0.3Q91.44 0.1 90.39 0.35 89.34 0.6 88.59 0.6ZM101.79 0.6L101.79 0.6Q100.34 0.6 99.09 0.2 97.84-0.2 96.89-1 95.94-1.8 95.39-3.05 94.84-4.3 94.84-6L94.84-6Q94.84-10 98.56-12.08 102.29-14.15 110.34-15.05L110.34-15.05Q110.34-16.4 110.14-17.78 109.94-19.15 109.29-20.23 108.64-21.3 107.54-21.98 106.44-22.65 104.64-22.65L104.64-22.65Q102.24-22.65 100.24-21.7 98.24-20.75 96.99-19.85L96.99-19.85 95.99-21.5Q96.64-21.95 97.56-22.5 98.49-23.05 99.64-23.5 100.79-23.95 102.14-24.28 103.49-24.6 104.94-24.6L104.94-24.6Q107.04-24.6 108.49-23.88 109.94-23.15 110.84-21.9 111.74-20.65 112.14-18.98 112.54-17.3 112.54-15.35L112.54-15.35 112.54 0 110.64 0 110.44-3.1 110.29-3.1Q108.44-1.65 106.31-0.53 104.19 0.6 101.79 0.6ZM102.19-1.3L102.19-1.3Q104.29-1.3 106.19-2.3 108.09-3.3 110.34-5.2L110.34-5.2 110.34-13.35Q106.64-12.9 104.09-12.25 101.54-11.6 99.99-10.7 98.44-9.8 97.76-8.65 97.09-7.5 97.09-6.1L97.09-6.1Q97.09-4.8 97.49-3.9 97.89-3 98.59-2.43 99.29-1.85 100.21-1.58 101.14-1.3 102.19-1.3ZM124.04 0.6L124.04 0.6Q121.09 0.6 121.09-3.2L121.09-3.2 121.09-35.95 123.29-35.95 123.29-2.9Q123.29-2.1 123.59-1.73 123.89-1.35 124.34-1.35L124.34-1.35Q124.49-1.35 124.66-1.35 124.84-1.35 125.24-1.45L125.24-1.45 125.64 0.35Q125.29 0.45 124.94 0.53 124.59 0.6 124.04 0.6ZM135.13 0L132.93 0 132.93-24 135.13-24 135.13 0ZM134.08-29.8L134.08-29.8Q133.23-29.8 132.66-30.35 132.08-30.9 132.08-31.75L132.08-31.75Q132.08-32.7 132.66-33.23 133.23-33.75 134.08-33.75L134.08-33.75Q134.93-33.75 135.51-33.23 136.08-32.7 136.08-31.75L136.08-31.75Q136.08-30.9 135.51-30.35 134.93-29.8 134.08-29.8ZM158.68 0L141.13 0 141.13-1.2 155.33-22.1 142.68-22.1 142.68-24 158.18-24 158.18-22.85 144.03-1.95 158.68-1.95 158.68 0ZM166.78 0L164.58 0 164.58-24 166.78-24 166.78 0ZM165.73-29.8L165.73-29.8Q164.88-29.8 164.3-30.35 163.73-30.9 163.73-31.75L163.73-31.75Q163.73-32.7 164.3-33.23 164.88-33.75 165.73-33.75L165.73-33.75Q166.58-33.75 167.15-33.23 167.73-32.7 167.73-31.75L167.73-31.75Q167.73-30.9 167.15-30.35 166.58-29.8 165.73-29.8ZM178.23 0L176.03 0 176.03-24 177.93-24 178.13-20.3 178.28-20.3Q180.13-22.15 182.08-23.38 184.03-24.6 186.53-24.6L186.53-24.6Q190.28-24.6 192.03-22.35 193.78-20.1 193.78-15.4L193.78-15.4 193.78 0 191.58 0 191.58-15.1Q191.58-18.95 190.3-20.78 189.03-22.6 186.08-22.6L186.08-22.6Q183.93-22.6 182.18-21.48 180.43-20.35 178.23-18.1L178.23-18.1 178.23 0ZM210.47 11.55L210.47 11.55Q205.92 11.55 203.27 9.75 200.62 7.95 200.62 4.9L200.62 4.9Q200.62 3.3 201.57 1.8 202.52 0.3 204.17-0.9L204.17-0.9 204.17-1.1Q203.27-1.65 202.67-2.6 202.07-3.55 202.07-4.95L202.07-4.95Q202.07-6.55 202.97-7.68 203.87-8.8 204.67-9.35L204.67-9.35 204.67-9.55Q203.52-10.55 202.6-12.25 201.67-13.95 201.67-16.15L201.67-16.15Q201.67-18 202.32-19.55 202.97-21.1 204.12-22.23 205.27-23.35 206.82-23.98 208.37-24.6 210.12-24.6L210.12-24.6Q211.12-24.6 211.92-24.43 212.72-24.25 213.27-24L213.27-24 221.42-24 221.42-22.15 215.82-22.15Q216.97-21.15 217.72-19.58 218.47-18 218.47-16.1L218.47-16.1Q218.47-14.25 217.82-12.7 217.17-11.15 216.05-10.03 214.92-8.9 213.4-8.28 211.87-7.65 210.12-7.65L210.12-7.65Q209.12-7.65 208.05-7.9 206.97-8.15 206.12-8.65L206.12-8.65Q205.32-8 204.75-7.2 204.17-6.4 204.17-5.2L204.17-5.2Q204.17-3.9 205.12-2.98 206.07-2.05 208.77-2.05L208.77-2.05 213.92-2.05Q217.97-2.05 219.9-0.73 221.82 0.6 221.82 3.45L221.82 3.45Q221.82 5 221.02 6.48 220.22 7.95 218.75 9.08 217.27 10.2 215.17 10.88 213.07 11.55 210.47 11.55ZM210.12-9.4L210.12-9.4Q211.37-9.4 212.5-9.88 213.62-10.35 214.47-11.25 215.32-12.15 215.82-13.4 216.32-14.65 216.32-16.15L216.32-16.15Q216.32-17.65 215.82-18.9 215.32-20.15 214.5-21 213.67-21.85 212.52-22.33 211.37-22.8 210.12-22.8L210.12-22.8Q208.82-22.8 207.7-22.33 206.57-21.85 205.72-21 204.87-20.15 204.37-18.93 203.87-17.7 203.87-16.15L203.87-16.15Q203.87-14.65 204.37-13.4 204.87-12.15 205.75-11.25 206.62-10.35 207.75-9.88 208.87-9.4 210.12-9.4ZM210.72 9.75L210.72 9.75Q212.72 9.75 214.37 9.22 216.02 8.7 217.17 7.85 218.32 7 218.95 5.93 219.57 4.85 219.57 3.7L219.57 3.7Q219.57 1.7 218.15 0.88 216.72 0.05 214.02 0.05L214.02 0.05 208.87 0.05Q208.47 0.05 207.65-0.03 206.82-0.1 205.87-0.35L205.87-0.35Q204.22 0.8 203.47 2.1 202.72 3.4 202.72 4.7L202.72 4.7Q202.72 6.95 204.8 8.35 206.87 9.75 210.72 9.75ZM239.52 0L237.22 0 237.22-32.95 239.52-32.95 239.52-18.5 257.17-18.5 257.17-32.95 259.47-32.95 259.47 0 257.17 0 257.17-16.5 239.52-16.5 239.52 0ZM278.01 0.6L278.01 0.6Q275.71 0.6 273.69-0.25 271.67-1.1 270.17-2.73 268.67-4.35 267.79-6.68 266.92-9 266.92-11.95L266.92-11.95Q266.92-14.9 267.79-17.25 268.67-19.6 270.14-21.23 271.62-22.85 273.49-23.73 275.37-24.6 277.37-24.6L277.37-24.6Q281.67-24.6 284.12-21.7 286.56-18.8 286.56-13.5L286.56-13.5Q286.56-13.05 286.56-12.6 286.56-12.15 286.46-11.7L286.46-11.7 269.17-11.7Q269.21-9.45 269.87-7.53 270.51-5.6 271.69-4.23 272.87-2.85 274.51-2.08 276.17-1.3 278.21-1.3L278.21-1.3Q280.17-1.3 281.74-1.88 283.31-2.45 284.67-3.45L284.67-3.45 285.56-1.75Q284.12-0.9 282.39-0.15 280.67 0.6 278.01 0.6ZM269.17-13.5L269.17-13.5 284.46-13.5Q284.46-18.15 282.56-20.43 280.67-22.7 277.42-22.7L277.42-22.7Q275.87-22.7 274.46-22.08 273.06-21.45 271.94-20.25 270.81-19.05 270.09-17.35 269.37-15.65 269.17-13.5ZM297.56 0.6L297.56 0.6Q296.11 0.6 294.86 0.2 293.61-0.2 292.66-1 291.71-1.8 291.16-3.05 290.61-4.3 290.61-6L290.61-6Q290.61-10 294.34-12.08 298.06-14.15 306.11-15.05L306.11-15.05Q306.11-16.4 305.91-17.78 305.71-19.15 305.06-20.23 304.41-21.3 303.31-21.98 302.21-22.65 300.41-22.65L300.41-22.65Q298.01-22.65 296.01-21.7 294.01-20.75 292.76-19.85L292.76-19.85 291.76-21.5Q292.41-21.95 293.34-22.5 294.26-23.05 295.41-23.5 296.56-23.95 297.91-24.28 299.26-24.6 300.71-24.6L300.71-24.6Q302.81-24.6 304.26-23.88 305.71-23.15 306.61-21.9 307.51-20.65 307.91-18.98 308.31-17.3 308.31-15.35L308.31-15.35 308.31 0 306.41 0 306.21-3.1 306.06-3.1Q304.21-1.65 302.09-0.53 299.96 0.6 297.56 0.6ZM297.96-1.3L297.96-1.3Q300.06-1.3 301.96-2.3 303.86-3.3 306.11-5.2L306.11-5.2 306.11-13.35Q302.41-12.9 299.86-12.25 297.31-11.6 295.76-10.7 294.21-9.8 293.54-8.65 292.86-7.5 292.86-6.1L292.86-6.1Q292.86-4.8 293.26-3.9 293.66-3 294.36-2.43 295.06-1.85 295.99-1.58 296.91-1.3 297.96-1.3ZM319.81 0.6L319.81 0.6Q316.86 0.6 316.86-3.2L316.86-3.2 316.86-35.95 319.06-35.95 319.06-2.9Q319.06-2.1 319.36-1.73 319.66-1.35 320.11-1.35L320.11-1.35Q320.26-1.35 320.44-1.35 320.61-1.35 321.01-1.45L321.01-1.45 321.41 0.35Q321.06 0.45 320.71 0.53 320.36 0.6 319.81 0.6ZM335.26 0.6L335.26 0.6Q333.51 0.6 332.36 0.08 331.21-0.45 330.51-1.4 329.81-2.35 329.53-3.7 329.26-5.05 329.26-6.65L329.26-6.65 329.26-22.1 325.51-22.1 325.51-23.8 329.31-24 329.61-30.95 331.51-30.95 331.51-24 338.46-24 338.46-22.1 331.51-22.1 331.51-6.45Q331.51-5.3 331.68-4.38 331.86-3.45 332.31-2.78 332.76-2.1 333.53-1.73 334.31-1.35 335.56-1.35L335.56-1.35Q336.26-1.35 337.08-1.58 337.91-1.8 338.56-2.1L338.56-2.1 339.16-0.3Q338.11 0.1 337.06 0.35 336.01 0.6 335.26 0.6ZM346.51 0L344.31 0 344.31-35.95 346.51-35.95 346.51-20.25Q348.41-22.15 350.36-23.38 352.31-24.6 354.81-24.6L354.81-24.6Q358.56-24.6 360.31-22.35 362.06-20.1 362.06-15.4L362.06-15.4 362.06 0 359.86 0 359.86-15.1Q359.86-18.95 358.58-20.78 357.31-22.6 354.36-22.6L354.36-22.6Q352.21-22.6 350.46-21.48 348.71-20.35 346.51-18.1L346.51-18.1 346.51 0Z" opacity="1" transform="matrix(1,0,0,1,0,0)" fill="#ffffff" class="slogan-text-1" data-fill-palette-color="secondary" id="text-1"></path></svg></g></svg></g></svg></g></svg></g><g transform="matrix(1,0,0,1,160.95078773764843,0)"><svg viewBox="0 0 73.61842452470314 126.88752425463083" height="126.88752425463083" width="73.61842452470314"><g><svg xmlns="http://www.w3.org/2000/svg" xmlns:xlink="http://www.w3.org/1999/xlink" version="1.1" x="0" y="0" viewBox="21.679106830508623 1 56.85827385947761 98" enable-background="new 0 0 100 100" xml:space="preserve" height="126.88752425463083" width="73.61842452470314" class="icon-icon-0" data-fill-palette-color="accent" id="icon-0"></svg></g></svg></g><g></g></svg></g><defs></defs><mask id="1805237c-dcc1-4517-84c7-c126f2b42870"><g id="SvgjsG1678"><svg viewBox="0 0 395.52 258.69074372796615" height="258.69074372796615" width="395.52"><g><svg viewBox="0 0 395.52 258.69074372796615" height="258.69074372796615" width="395.52"><g transform="matrix(1,0,0,1,0,131.80321947333536)"><svg viewBox="0 0 395.52 126.88752425463082" height="126.88752425463082" width="395.52"><g id="SvgjsG1677"><svg viewBox="0 0 395.52 126.88752425463082" height="126.88752425463082" width="395.52" id="SvgjsSvg1676"><g><svg viewBox="0 0 395.52 81.18429451520201" height="81.18429451520201" width="395.52"><g transform="matrix(1,0,0,1,0,0)"><svg width="395.52" viewBox="1.3416200000000016 -20.500149999999998 231.72666 47.56412" height="81.18429451520201" data-palette-color="url(#221d12a0-6b59-4550-aa5a-b0b4f47164b1)"><path d="M26.015 18.676l-14.749-30.338-5.635 25.904-4.289-0.933 7.354-33.809 3.626 0.788 14.916 30.928 5.74-26.383 4.279 0.931-7.344 33.76zM43.087 21.593l-4.332-0.71 5.595-34.145 4.332 0.71zM75.412 25.468l-23.53-2.751 4.017-34.366 4.361 0.51-3.565 30.493 19.17 2.24zM85.533 22.066l19.068 1.105-0.225 3.893-23.451-1.358 2.001-34.542 23.011 1.332-0.225 3.894-18.629-1.079-0.648 11.191 16.203 0.939-0.211 3.644-16.203-0.939zM135.885-7.818l0.031 3.899-11.94 0.095 0.242 30.699-4.38 0.034-0.242-30.699-11.939 0.094-0.031-3.9zM145.968 22.253l19.06-1.235 0.252 3.892-23.441 1.519-2.237-34.528 23.002-1.49 0.252 3.892-18.621 1.206 0.725 11.187 16.196-1.049 0.236 3.642-16.196 1.049zM167.54 6.887v0c-0.279-2.095-0.188-4.198 0.27-6.311 0.453-2.105 1.27-4.08 2.45-5.924 1.18-1.845 2.72-3.395 4.618-4.65 1.898-1.254 4.135-2.053 6.713-2.395v0c3.06-0.407 5.78-0.056 8.16 1.053 2.374 1.11 4.238 2.691 5.594 4.744v0l-3.135 2.677c-0.867-1.358-1.882-2.396-3.047-3.116-1.158-0.714-2.364-1.165-3.62-1.355-1.257-0.196-2.463-0.217-3.62-0.063v0c-1.903 0.253-3.534 0.863-4.891 1.831-1.364 0.968-2.46 2.163-3.287 3.584-0.827 1.421-1.385 2.962-1.675 4.621-0.284 1.659-0.319 3.294-0.104 4.907v0c0.236 1.771 0.76 3.44 1.574 5.006 0.813 1.56 1.835 2.897 3.065 4.011 1.231 1.114 2.619 1.945 4.165 2.493 1.546 0.548 3.171 0.708 4.876 0.481v0c1.196-0.159 2.394-0.53 3.594-1.113 1.2-0.583 2.29-1.391 3.27-2.422 0.973-1.031 1.688-2.299 2.147-3.806v0l3.882 1.501c-0.48 1.799-1.381 3.395-2.703 4.788-1.322 1.386-2.854 2.508-4.596 3.365-1.736 0.85-3.49 1.392-5.262 1.628v0c-2.353 0.313-4.578 0.094-6.674-0.656-2.098-0.757-3.977-1.886-5.636-3.387-1.659-1.501-3.025-3.253-4.099-5.255-1.067-2.004-1.743-4.082-2.029-6.237zM221.939-19.467l4.304-0.866 6.825 33.921-4.303 0.865-3.105-15.43-18.676 3.758 3.105 15.43-4.304 0.866-6.825-33.92 4.304-0.866 2.951 14.666 18.675-3.758z" opacity="1" transform="matrix(1,0,0,1,0,0)" fill="white" class="wordmark-text-0" id="SvgjsPath1675"></path></svg></g></svg></g><g transform="matrix(1,0,0,1,118.31980799999998,105.7627706087246)"><svg viewBox="0 0 158.88038400000002 21.12475364590623" height="21.12475364590623" width="158.88038400000002"><g transform="matrix(1,0,0,1,0,0)"><svg width="158.88038400000002" viewBox="4.85 -35.95 357.21 47.5" height="21.12475364590623" data-palette-color="#2ecc40"><path d="M12.55 0L4.85 0 4.85-32.95 12.5-32.95Q16.3-32.95 19.13-31.8 21.95-30.65 23.8-28.5 25.65-26.35 26.55-23.35 27.45-20.35 27.45-16.6L27.45-16.6Q27.45-12.85 26.55-9.78 25.65-6.7 23.8-4.53 21.95-2.35 19.15-1.18 16.35 0 12.55 0L12.55 0ZM7.15-31L7.15-1.95 12.25-1.95Q15.6-1.95 18.03-3.03 20.45-4.1 22-6.05 23.55-8 24.3-10.68 25.05-13.35 25.05-16.6L25.05-16.6Q25.05-19.8 24.3-22.45 23.55-25.1 22-27 20.45-28.9 18.03-29.95 15.6-31 12.25-31L12.25-31 7.15-31ZM37 0L34.8 0 34.8-24 37-24 37 0ZM35.95-29.8L35.95-29.8Q35.1-29.8 34.52-30.35 33.95-30.9 33.95-31.75L33.95-31.75Q33.95-32.7 34.52-33.23 35.1-33.75 35.95-33.75L35.95-33.75Q36.8-33.75 37.37-33.23 37.95-32.7 37.95-31.75L37.95-31.75Q37.95-30.9 37.37-30.35 36.8-29.8 35.95-29.8ZM54.1 11.55L54.1 11.55Q49.55 11.55 46.9 9.75 44.25 7.95 44.25 4.9L44.25 4.9Q44.25 3.3 45.2 1.8 46.15 0.3 47.8-0.9L47.8-0.9 47.8-1.1Q46.9-1.65 46.3-2.6 45.7-3.55 45.7-4.95L45.7-4.95Q45.7-6.55 46.6-7.68 47.5-8.8 48.3-9.35L48.3-9.35 48.3-9.55Q47.15-10.55 46.22-12.25 45.3-13.95 45.3-16.15L45.3-16.15Q45.3-18 45.95-19.55 46.6-21.1 47.75-22.23 48.9-23.35 50.45-23.98 52-24.6 53.75-24.6L53.75-24.6Q54.75-24.6 55.55-24.43 56.35-24.25 56.9-24L56.9-24 65.05-24 65.05-22.15 59.45-22.15Q60.59-21.15 61.35-19.58 62.1-18 62.1-16.1L62.1-16.1Q62.1-14.25 61.45-12.7 60.8-11.15 59.67-10.03 58.55-8.9 57.02-8.28 55.5-7.65 53.75-7.65L53.75-7.65Q52.75-7.65 51.67-7.9 50.6-8.15 49.75-8.65L49.75-8.65Q48.95-8 48.37-7.2 47.8-6.4 47.8-5.2L47.8-5.2Q47.8-3.9 48.75-2.98 49.7-2.05 52.4-2.05L52.4-2.05 57.55-2.05Q61.6-2.05 63.52-0.73 65.45 0.6 65.45 3.45L65.45 3.45Q65.45 5 64.65 6.48 63.85 7.95 62.37 9.08 60.9 10.2 58.8 10.88 56.7 11.55 54.1 11.55ZM53.75-9.4L53.75-9.4Q55-9.4 56.12-9.88 57.25-10.35 58.09-11.25 58.95-12.15 59.45-13.4 59.95-14.65 59.95-16.15L59.95-16.15Q59.95-17.65 59.45-18.9 58.95-20.15 58.12-21 57.3-21.85 56.15-22.33 55-22.8 53.75-22.8L53.75-22.8Q52.45-22.8 51.32-22.33 50.2-21.85 49.35-21 48.5-20.15 48-18.93 47.5-17.7 47.5-16.15L47.5-16.15Q47.5-14.65 48-13.4 48.5-12.15 49.37-11.25 50.25-10.35 51.37-9.88 52.5-9.4 53.75-9.4ZM54.35 9.75L54.35 9.75Q56.35 9.75 58 9.22 59.65 8.7 60.8 7.85 61.95 7 62.57 5.93 63.2 4.85 63.2 3.7L63.2 3.7Q63.2 1.7 61.77 0.88 60.34 0.05 57.65 0.05L57.65 0.05 52.5 0.05Q52.1 0.05 51.27-0.03 50.45-0.1 49.5-0.35L49.5-0.35Q47.85 0.8 47.1 2.1 46.35 3.4 46.35 4.7L46.35 4.7Q46.35 6.95 48.42 8.35 50.5 9.75 54.35 9.75ZM72.79 0L70.59 0 70.59-24 72.79-24 72.79 0ZM71.74-29.8L71.74-29.8Q70.89-29.8 70.32-30.35 69.74-30.9 69.74-31.75L69.74-31.75Q69.74-32.7 70.32-33.23 70.89-33.75 71.74-33.75L71.74-33.75Q72.59-33.75 73.17-33.23 73.74-32.7 73.74-31.75L73.74-31.75Q73.74-30.9 73.17-30.35 72.59-29.8 71.74-29.8ZM88.59 0.6L88.59 0.6Q86.84 0.6 85.69 0.08 84.54-0.45 83.84-1.4 83.14-2.35 82.87-3.7 82.59-5.05 82.59-6.65L82.59-6.65 82.59-22.1 78.84-22.1 78.84-23.8 82.64-24 82.94-30.95 84.84-30.95 84.84-24 91.79-24 91.79-22.1 84.84-22.1 84.84-6.45Q84.84-5.3 85.02-4.38 85.19-3.45 85.64-2.78 86.09-2.1 86.87-1.73 87.64-1.35 88.89-1.35L88.89-1.35Q89.59-1.35 90.42-1.58 91.24-1.8 91.89-2.1L91.89-2.1 92.49-0.3Q91.44 0.1 90.39 0.35 89.34 0.6 88.59 0.6ZM101.79 0.6L101.79 0.6Q100.34 0.6 99.09 0.2 97.84-0.2 96.89-1 95.94-1.8 95.39-3.05 94.84-4.3 94.84-6L94.84-6Q94.84-10 98.56-12.08 102.29-14.15 110.34-15.05L110.34-15.05Q110.34-16.4 110.14-17.78 109.94-19.15 109.29-20.23 108.64-21.3 107.54-21.98 106.44-22.65 104.64-22.65L104.64-22.65Q102.24-22.65 100.24-21.7 98.24-20.75 96.99-19.85L96.99-19.85 95.99-21.5Q96.64-21.95 97.56-22.5 98.49-23.05 99.64-23.5 100.79-23.95 102.14-24.28 103.49-24.6 104.94-24.6L104.94-24.6Q107.04-24.6 108.49-23.88 109.94-23.15 110.84-21.9 111.74-20.65 112.14-18.98 112.54-17.3 112.54-15.35L112.54-15.35 112.54 0 110.64 0 110.44-3.1 110.29-3.1Q108.44-1.65 106.31-0.53 104.19 0.6 101.79 0.6ZM102.19-1.3L102.19-1.3Q104.29-1.3 106.19-2.3 108.09-3.3 110.34-5.2L110.34-5.2 110.34-13.35Q106.64-12.9 104.09-12.25 101.54-11.6 99.99-10.7 98.44-9.8 97.76-8.65 97.09-7.5 97.09-6.1L97.09-6.1Q97.09-4.8 97.49-3.9 97.89-3 98.59-2.43 99.29-1.85 100.21-1.58 101.14-1.3 102.19-1.3ZM124.04 0.6L124.04 0.6Q121.09 0.6 121.09-3.2L121.09-3.2 121.09-35.95 123.29-35.95 123.29-2.9Q123.29-2.1 123.59-1.73 123.89-1.35 124.34-1.35L124.34-1.35Q124.49-1.35 124.66-1.35 124.84-1.35 125.24-1.45L125.24-1.45 125.64 0.35Q125.29 0.45 124.94 0.53 124.59 0.6 124.04 0.6ZM135.13 0L132.93 0 132.93-24 135.13-24 135.13 0ZM134.08-29.8L134.08-29.8Q133.23-29.8 132.66-30.35 132.08-30.9 132.08-31.75L132.08-31.75Q132.08-32.7 132.66-33.23 133.23-33.75 134.08-33.75L134.08-33.75Q134.93-33.75 135.51-33.23 136.08-32.7 136.08-31.75L136.08-31.75Q136.08-30.9 135.51-30.35 134.93-29.8 134.08-29.8ZM158.68 0L141.13 0 141.13-1.2 155.33-22.1 142.68-22.1 142.68-24 158.18-24 158.18-22.85 144.03-1.95 158.68-1.95 158.68 0ZM166.78 0L164.58 0 164.58-24 166.78-24 166.78 0ZM165.73-29.8L165.73-29.8Q164.88-29.8 164.3-30.35 163.73-30.9 163.73-31.75L163.73-31.75Q163.73-32.7 164.3-33.23 164.88-33.75 165.73-33.75L165.73-33.75Q166.58-33.75 167.15-33.23 167.73-32.7 167.73-31.75L167.73-31.75Q167.73-30.9 167.15-30.35 166.58-29.8 165.73-29.8ZM178.23 0L176.03 0 176.03-24 177.93-24 178.13-20.3 178.28-20.3Q180.13-22.15 182.08-23.38 184.03-24.6 186.53-24.6L186.53-24.6Q190.28-24.6 192.03-22.35 193.78-20.1 193.78-15.4L193.78-15.4 193.78 0 191.58 0 191.58-15.1Q191.58-18.95 190.3-20.78 189.03-22.6 186.08-22.6L186.08-22.6Q183.93-22.6 182.18-21.48 180.43-20.35 178.23-18.1L178.23-18.1 178.23 0ZM210.47 11.55L210.47 11.55Q205.92 11.55 203.27 9.75 200.62 7.95 200.62 4.9L200.62 4.9Q200.62 3.3 201.57 1.8 202.52 0.3 204.17-0.9L204.17-0.9 204.17-1.1Q203.27-1.65 202.67-2.6 202.07-3.55 202.07-4.95L202.07-4.95Q202.07-6.55 202.97-7.68 203.87-8.8 204.67-9.35L204.67-9.35 204.67-9.55Q203.52-10.55 202.6-12.25 201.67-13.95 201.67-16.15L201.67-16.15Q201.67-18 202.32-19.55 202.97-21.1 204.12-22.23 205.27-23.35 206.82-23.98 208.37-24.6 210.12-24.6L210.12-24.6Q211.12-24.6 211.92-24.43 212.72-24.25 213.27-24L213.27-24 221.42-24 221.42-22.15 215.82-22.15Q216.97-21.15 217.72-19.58 218.47-18 218.47-16.1L218.47-16.1Q218.47-14.25 217.82-12.7 217.17-11.15 216.05-10.03 214.92-8.9 213.4-8.28 211.87-7.65 210.12-7.65L210.12-7.65Q209.12-7.65 208.05-7.9 206.97-8.15 206.12-8.65L206.12-8.65Q205.32-8 204.75-7.2 204.17-6.4 204.17-5.2L204.17-5.2Q204.17-3.9 205.12-2.98 206.07-2.05 208.77-2.05L208.77-2.05 213.92-2.05Q217.97-2.05 219.9-0.73 221.82 0.6 221.82 3.45L221.82 3.45Q221.82 5 221.02 6.48 220.22 7.95 218.75 9.08 217.27 10.2 215.17 10.88 213.07 11.55 210.47 11.55ZM210.12-9.4L210.12-9.4Q211.37-9.4 212.5-9.88 213.62-10.35 214.47-11.25 215.32-12.15 215.82-13.4 216.32-14.65 216.32-16.15L216.32-16.15Q216.32-17.65 215.82-18.9 215.32-20.15 214.5-21 213.67-21.85 212.52-22.33 211.37-22.8 210.12-22.8L210.12-22.8Q208.82-22.8 207.7-22.33 206.57-21.85 205.72-21 204.87-20.15 204.37-18.93 203.87-17.7 203.87-16.15L203.87-16.15Q203.87-14.65 204.37-13.4 204.87-12.15 205.75-11.25 206.62-10.35 207.75-9.88 208.87-9.4 210.12-9.4ZM210.72 9.75L210.72 9.75Q212.72 9.75 214.37 9.22 216.02 8.7 217.17 7.85 218.32 7 218.95 5.93 219.57 4.85 219.57 3.7L219.57 3.7Q219.57 1.7 218.15 0.88 216.72 0.05 214.02 0.05L214.02 0.05 208.87 0.05Q208.47 0.05 207.65-0.03 206.82-0.1 205.87-0.35L205.87-0.35Q204.22 0.8 203.47 2.1 202.72 3.4 202.72 4.7L202.72 4.7Q202.72 6.95 204.8 8.35 206.87 9.75 210.72 9.75ZM239.52 0L237.22 0 237.22-32.95 239.52-32.95 239.52-18.5 257.17-18.5 257.17-32.95 259.47-32.95 259.47 0 257.17 0 257.17-16.5 239.52-16.5 239.52 0ZM278.01 0.6L278.01 0.6Q275.71 0.6 273.69-0.25 271.67-1.1 270.17-2.73 268.67-4.35 267.79-6.68 266.92-9 266.92-11.95L266.92-11.95Q266.92-14.9 267.79-17.25 268.67-19.6 270.14-21.23 271.62-22.85 273.49-23.73 275.37-24.6 277.37-24.6L277.37-24.6Q281.67-24.6 284.12-21.7 286.56-18.8 286.56-13.5L286.56-13.5Q286.56-13.05 286.56-12.6 286.56-12.15 286.46-11.7L286.46-11.7 269.17-11.7Q269.21-9.45 269.87-7.53 270.51-5.6 271.69-4.23 272.87-2.85 274.51-2.08 276.17-1.3 278.21-1.3L278.21-1.3Q280.17-1.3 281.74-1.88 283.31-2.45 284.67-3.45L284.67-3.45 285.56-1.75Q284.12-0.9 282.39-0.15 280.67 0.6 278.01 0.6ZM269.17-13.5L269.17-13.5 284.46-13.5Q284.46-18.15 282.56-20.43 280.67-22.7 277.42-22.7L277.42-22.7Q275.87-22.7 274.46-22.08 273.06-21.45 271.94-20.25 270.81-19.05 270.09-17.35 269.37-15.65 269.17-13.5ZM297.56 0.6L297.56 0.6Q296.11 0.6 294.86 0.2 293.61-0.2 292.66-1 291.71-1.8 291.16-3.05 290.61-4.3 290.61-6L290.61-6Q290.61-10 294.34-12.08 298.06-14.15 306.11-15.05L306.11-15.05Q306.11-16.4 305.91-17.78 305.71-19.15 305.06-20.23 304.41-21.3 303.31-21.98 302.21-22.65 300.41-22.65L300.41-22.65Q298.01-22.65 296.01-21.7 294.01-20.75 292.76-19.85L292.76-19.85 291.76-21.5Q292.41-21.95 293.34-22.5 294.26-23.05 295.41-23.5 296.56-23.95 297.91-24.28 299.26-24.6 300.71-24.6L300.71-24.6Q302.81-24.6 304.26-23.88 305.71-23.15 306.61-21.9 307.51-20.65 307.91-18.98 308.31-17.3 308.31-15.35L308.31-15.35 308.31 0 306.41 0 306.21-3.1 306.06-3.1Q304.21-1.65 302.09-0.53 299.96 0.6 297.56 0.6ZM297.96-1.3L297.96-1.3Q300.06-1.3 301.96-2.3 303.86-3.3 306.11-5.2L306.11-5.2 306.11-13.35Q302.41-12.9 299.86-12.25 297.31-11.6 295.76-10.7 294.21-9.8 293.54-8.65 292.86-7.5 292.86-6.1L292.86-6.1Q292.86-4.8 293.26-3.9 293.66-3 294.36-2.43 295.06-1.85 295.99-1.58 296.91-1.3 297.96-1.3ZM319.81 0.6L319.81 0.6Q316.86 0.6 316.86-3.2L316.86-3.2 316.86-35.95 319.06-35.95 319.06-2.9Q319.06-2.1 319.36-1.73 319.66-1.35 320.11-1.35L320.11-1.35Q320.26-1.35 320.44-1.35 320.61-1.35 321.01-1.45L321.01-1.45 321.41 0.35Q321.06 0.45 320.71 0.53 320.36 0.6 319.81 0.6ZM335.26 0.6L335.26 0.6Q333.51 0.6 332.36 0.08 331.21-0.45 330.51-1.4 329.81-2.35 329.53-3.7 329.26-5.05 329.26-6.65L329.26-6.65 329.26-22.1 325.51-22.1 325.51-23.8 329.31-24 329.61-30.95 331.51-30.95 331.51-24 338.46-24 338.46-22.1 331.51-22.1 331.51-6.45Q331.51-5.3 331.68-4.38 331.86-3.45 332.31-2.78 332.76-2.1 333.53-1.73 334.31-1.35 335.56-1.35L335.56-1.35Q336.26-1.35 337.08-1.58 337.91-1.8 338.56-2.1L338.56-2.1 339.16-0.3Q338.11 0.1 337.06 0.35 336.01 0.6 335.26 0.6ZM346.51 0L344.31 0 344.31-35.95 346.51-35.95 346.51-20.25Q348.41-22.15 350.36-23.38 352.31-24.6 354.81-24.6L354.81-24.6Q358.56-24.6 360.31-22.35 362.06-20.1 362.06-15.4L362.06-15.4 362.06 0 359.86 0 359.86-15.1Q359.86-18.95 358.58-20.78 357.31-22.6 354.36-22.6L354.36-22.6Q352.21-22.6 350.46-21.48 348.71-20.35 346.51-18.1L346.51-18.1 346.51 0Z" opacity="1" transform="matrix(1,0,0,1,0,0)" fill="black" class="slogan-text-1" id="SvgjsPath1674"></path></svg></g></svg></g></svg></g></svg></g><g transform="matrix(1,0,0,1,160.95078773764843,0)"><svg viewBox="0 0 73.61842452470314 126.88752425463083" height="126.88752425463083" width="73.61842452470314"><g><svg xmlns="http://www.w3.org/2000/svg" xmlns:xlink="http://www.w3.org/1999/xlink" version="1.1" x="0" y="0" viewBox="21.679106830508623 1 56.85827385947761 98" enable-background="new 0 0 100 100" xml:space="preserve" height="126.88752425463083" width="73.61842452470314" class="icon-icon-0" data-fill-palette-color="accent" id="SvgjsSvg1673"><g fill="black"><path fill-rule="evenodd" clip-rule="evenodd" d="M30.545 28.822c-1.165 7.217 0.33 14.85 6.5 19.041C30.758 19.81 45.756 8.664 59.646 1c-16.18 23.046 16.896 23.644 18.777 50.13C80.028 73.71 64.507 91.317 46.639 99c0.206-22.825-22.55-25.933-24.838-44.603C20.905 47.094 25.062 33.766 30.545 28.822z" fill="black"></path></g></svg></g></svg></g><g></g></svg></g><defs><mask></mask></defs></svg><rect width="395.52" height="258.69074372796615" fill="black" stroke="none" visibility="hidden"></rect></g></mask><linearGradient x1="0" x2="1" y1="0.578" y2="0.595" id="221d12a0-6b59-4550-aa5a-b0b4f47164b1"><stop stop-color="#6ee2f5" offset="0"></stop><stop stop-color="#6454f0" offset="1"></stop></linearGradient><rect width="395.52" height="258.69074372796615" fill="#ffffff" mask="url(#1805237c-dcc1-4517-84c7-c126f2b42870)" data-fill-palette-color="primary"></rect><mask id="5743af0e-9c57-4a6b-b3ec-fe149ed1f954"><g id="SvgjsG1689"><svg viewBox="0 0 395.52 258.69074372796615" height="258.69074372796615" width="395.52"><g><svg viewBox="0 0 395.52 258.69074372796615" height="258.69074372796615" width="395.52"><g transform="matrix(1,0,0,1,0,131.80321947333536)"><svg viewBox="0 0 395.52 126.88752425463082" height="126.88752425463082" width="395.52"><g id="SvgjsG1688"><svg viewBox="0 0 395.52 126.88752425463082" height="126.88752425463082" width="395.52" id="SvgjsSvg1687"><g><svg viewBox="0 0 395.52 81.18429451520201" height="81.18429451520201" width="395.52"><g transform="matrix(1,0,0,1,0,0)"><svg width="395.52" viewBox="1.3416200000000016 -20.500149999999998 231.72666 47.56412" height="81.18429451520201" data-palette-color="url(#221d12a0-6b59-4550-aa5a-b0b4f47164b1)"></svg></g></svg></g><g transform="matrix(1,0,0,1,118.31980799999998,105.7627706087246)"><svg viewBox="0 0 158.88038400000002 21.12475364590623" height="21.12475364590623" width="158.88038400000002"><g transform="matrix(1,0,0,1,0,0)"><svg width="158.88038400000002" viewBox="4.85 -35.95 357.21 47.5" height="21.12475364590623" data-palette-color="#2ecc40"><path d="M12.55 0L4.85 0 4.85-32.95 12.5-32.95Q16.3-32.95 19.13-31.8 21.95-30.65 23.8-28.5 25.65-26.35 26.55-23.35 27.45-20.35 27.45-16.6L27.45-16.6Q27.45-12.85 26.55-9.78 25.65-6.7 23.8-4.53 21.95-2.35 19.15-1.18 16.35 0 12.55 0L12.55 0ZM7.15-31L7.15-1.95 12.25-1.95Q15.6-1.95 18.03-3.03 20.45-4.1 22-6.05 23.55-8 24.3-10.68 25.05-13.35 25.05-16.6L25.05-16.6Q25.05-19.8 24.3-22.45 23.55-25.1 22-27 20.45-28.9 18.03-29.95 15.6-31 12.25-31L12.25-31 7.15-31ZM37 0L34.8 0 34.8-24 37-24 37 0ZM35.95-29.8L35.95-29.8Q35.1-29.8 34.52-30.35 33.95-30.9 33.95-31.75L33.95-31.75Q33.95-32.7 34.52-33.23 35.1-33.75 35.95-33.75L35.95-33.75Q36.8-33.75 37.37-33.23 37.95-32.7 37.95-31.75L37.95-31.75Q37.95-30.9 37.37-30.35 36.8-29.8 35.95-29.8ZM54.1 11.55L54.1 11.55Q49.55 11.55 46.9 9.75 44.25 7.95 44.25 4.9L44.25 4.9Q44.25 3.3 45.2 1.8 46.15 0.3 47.8-0.9L47.8-0.9 47.8-1.1Q46.9-1.65 46.3-2.6 45.7-3.55 45.7-4.95L45.7-4.95Q45.7-6.55 46.6-7.68 47.5-8.8 48.3-9.35L48.3-9.35 48.3-9.55Q47.15-10.55 46.22-12.25 45.3-13.95 45.3-16.15L45.3-16.15Q45.3-18 45.95-19.55 46.6-21.1 47.75-22.23 48.9-23.35 50.45-23.98 52-24.6 53.75-24.6L53.75-24.6Q54.75-24.6 55.55-24.43 56.35-24.25 56.9-24L56.9-24 65.05-24 65.05-22.15 59.45-22.15Q60.59-21.15 61.35-19.58 62.1-18 62.1-16.1L62.1-16.1Q62.1-14.25 61.45-12.7 60.8-11.15 59.67-10.03 58.55-8.9 57.02-8.28 55.5-7.65 53.75-7.65L53.75-7.65Q52.75-7.65 51.67-7.9 50.6-8.15 49.75-8.65L49.75-8.65Q48.95-8 48.37-7.2 47.8-6.4 47.8-5.2L47.8-5.2Q47.8-3.9 48.75-2.98 49.7-2.05 52.4-2.05L52.4-2.05 57.55-2.05Q61.6-2.05 63.52-0.73 65.45 0.6 65.45 3.45L65.45 3.45Q65.45 5 64.65 6.48 63.85 7.95 62.37 9.08 60.9 10.2 58.8 10.88 56.7 11.55 54.1 11.55ZM53.75-9.4L53.75-9.4Q55-9.4 56.12-9.88 57.25-10.35 58.09-11.25 58.95-12.15 59.45-13.4 59.95-14.65 59.95-16.15L59.95-16.15Q59.95-17.65 59.45-18.9 58.95-20.15 58.12-21 57.3-21.85 56.15-22.33 55-22.8 53.75-22.8L53.75-22.8Q52.45-22.8 51.32-22.33 50.2-21.85 49.35-21 48.5-20.15 48-18.93 47.5-17.7 47.5-16.15L47.5-16.15Q47.5-14.65 48-13.4 48.5-12.15 49.37-11.25 50.25-10.35 51.37-9.88 52.5-9.4 53.75-9.4ZM54.35 9.75L54.35 9.75Q56.35 9.75 58 9.22 59.65 8.7 60.8 7.85 61.95 7 62.57 5.93 63.2 4.85 63.2 3.7L63.2 3.7Q63.2 1.7 61.77 0.88 60.34 0.05 57.65 0.05L57.65 0.05 52.5 0.05Q52.1 0.05 51.27-0.03 50.45-0.1 49.5-0.35L49.5-0.35Q47.85 0.8 47.1 2.1 46.35 3.4 46.35 4.7L46.35 4.7Q46.35 6.95 48.42 8.35 50.5 9.75 54.35 9.75ZM72.79 0L70.59 0 70.59-24 72.79-24 72.79 0ZM71.74-29.8L71.74-29.8Q70.89-29.8 70.32-30.35 69.74-30.9 69.74-31.75L69.74-31.75Q69.74-32.7 70.32-33.23 70.89-33.75 71.74-33.75L71.74-33.75Q72.59-33.75 73.17-33.23 73.74-32.7 73.74-31.75L73.74-31.75Q73.74-30.9 73.17-30.35 72.59-29.8 71.74-29.8ZM88.59 0.6L88.59 0.6Q86.84 0.6 85.69 0.08 84.54-0.45 83.84-1.4 83.14-2.35 82.87-3.7 82.59-5.05 82.59-6.65L82.59-6.65 82.59-22.1 78.84-22.1 78.84-23.8 82.64-24 82.94-30.95 84.84-30.95 84.84-24 91.79-24 91.79-22.1 84.84-22.1 84.84-6.45Q84.84-5.3 85.02-4.38 85.19-3.45 85.64-2.78 86.09-2.1 86.87-1.73 87.64-1.35 88.89-1.35L88.89-1.35Q89.59-1.35 90.42-1.58 91.24-1.8 91.89-2.1L91.89-2.1 92.49-0.3Q91.44 0.1 90.39 0.35 89.34 0.6 88.59 0.6ZM101.79 0.6L101.79 0.6Q100.34 0.6 99.09 0.2 97.84-0.2 96.89-1 95.94-1.8 95.39-3.05 94.84-4.3 94.84-6L94.84-6Q94.84-10 98.56-12.08 102.29-14.15 110.34-15.05L110.34-15.05Q110.34-16.4 110.14-17.78 109.94-19.15 109.29-20.23 108.64-21.3 107.54-21.98 106.44-22.65 104.64-22.65L104.64-22.65Q102.24-22.65 100.24-21.7 98.24-20.75 96.99-19.85L96.99-19.85 95.99-21.5Q96.64-21.95 97.56-22.5 98.49-23.05 99.64-23.5 100.79-23.95 102.14-24.28 103.49-24.6 104.94-24.6L104.94-24.6Q107.04-24.6 108.49-23.88 109.94-23.15 110.84-21.9 111.74-20.65 112.14-18.98 112.54-17.3 112.54-15.35L112.54-15.35 112.54 0 110.64 0 110.44-3.1 110.29-3.1Q108.44-1.65 106.31-0.53 104.19 0.6 101.79 0.6ZM102.19-1.3L102.19-1.3Q104.29-1.3 106.19-2.3 108.09-3.3 110.34-5.2L110.34-5.2 110.34-13.35Q106.64-12.9 104.09-12.25 101.54-11.6 99.99-10.7 98.44-9.8 97.76-8.65 97.09-7.5 97.09-6.1L97.09-6.1Q97.09-4.8 97.49-3.9 97.89-3 98.59-2.43 99.29-1.85 100.21-1.58 101.14-1.3 102.19-1.3ZM124.04 0.6L124.04 0.6Q121.09 0.6 121.09-3.2L121.09-3.2 121.09-35.95 123.29-35.95 123.29-2.9Q123.29-2.1 123.59-1.73 123.89-1.35 124.34-1.35L124.34-1.35Q124.49-1.35 124.66-1.35 124.84-1.35 125.24-1.45L125.24-1.45 125.64 0.35Q125.29 0.45 124.94 0.53 124.59 0.6 124.04 0.6ZM135.13 0L132.93 0 132.93-24 135.13-24 135.13 0ZM134.08-29.8L134.08-29.8Q133.23-29.8 132.66-30.35 132.08-30.9 132.08-31.75L132.08-31.75Q132.08-32.7 132.66-33.23 133.23-33.75 134.08-33.75L134.08-33.75Q134.93-33.75 135.51-33.23 136.08-32.7 136.08-31.75L136.08-31.75Q136.08-30.9 135.51-30.35 134.93-29.8 134.08-29.8ZM158.68 0L141.13 0 141.13-1.2 155.33-22.1 142.68-22.1 142.68-24 158.18-24 158.18-22.85 144.03-1.95 158.68-1.95 158.68 0ZM166.78 0L164.58 0 164.58-24 166.78-24 166.78 0ZM165.73-29.8L165.73-29.8Q164.88-29.8 164.3-30.35 163.73-30.9 163.73-31.75L163.73-31.75Q163.73-32.7 164.3-33.23 164.88-33.75 165.73-33.75L165.73-33.75Q166.58-33.75 167.15-33.23 167.73-32.7 167.73-31.75L167.73-31.75Q167.73-30.9 167.15-30.35 166.58-29.8 165.73-29.8ZM178.23 0L176.03 0 176.03-24 177.93-24 178.13-20.3 178.28-20.3Q180.13-22.15 182.08-23.38 184.03-24.6 186.53-24.6L186.53-24.6Q190.28-24.6 192.03-22.35 193.78-20.1 193.78-15.4L193.78-15.4 193.78 0 191.58 0 191.58-15.1Q191.58-18.95 190.3-20.78 189.03-22.6 186.08-22.6L186.08-22.6Q183.93-22.6 182.18-21.48 180.43-20.35 178.23-18.1L178.23-18.1 178.23 0ZM210.47 11.55L210.47 11.55Q205.92 11.55 203.27 9.75 200.62 7.95 200.62 4.9L200.62 4.9Q200.62 3.3 201.57 1.8 202.52 0.3 204.17-0.9L204.17-0.9 204.17-1.1Q203.27-1.65 202.67-2.6 202.07-3.55 202.07-4.95L202.07-4.95Q202.07-6.55 202.97-7.68 203.87-8.8 204.67-9.35L204.67-9.35 204.67-9.55Q203.52-10.55 202.6-12.25 201.67-13.95 201.67-16.15L201.67-16.15Q201.67-18 202.32-19.55 202.97-21.1 204.12-22.23 205.27-23.35 206.82-23.98 208.37-24.6 210.12-24.6L210.12-24.6Q211.12-24.6 211.92-24.43 212.72-24.25 213.27-24L213.27-24 221.42-24 221.42-22.15 215.82-22.15Q216.97-21.15 217.72-19.58 218.47-18 218.47-16.1L218.47-16.1Q218.47-14.25 217.82-12.7 217.17-11.15 216.05-10.03 214.92-8.9 213.4-8.28 211.87-7.65 210.12-7.65L210.12-7.65Q209.12-7.65 208.05-7.9 206.97-8.15 206.12-8.65L206.12-8.65Q205.32-8 204.75-7.2 204.17-6.4 204.17-5.2L204.17-5.2Q204.17-3.9 205.12-2.98 206.07-2.05 208.77-2.05L208.77-2.05 213.92-2.05Q217.97-2.05 219.9-0.73 221.82 0.6 221.82 3.45L221.82 3.45Q221.82 5 221.02 6.48 220.22 7.95 218.75 9.08 217.27 10.2 215.17 10.88 213.07 11.55 210.47 11.55ZM210.12-9.4L210.12-9.4Q211.37-9.4 212.5-9.88 213.62-10.35 214.47-11.25 215.32-12.15 215.82-13.4 216.32-14.65 216.32-16.15L216.32-16.15Q216.32-17.65 215.82-18.9 215.32-20.15 214.5-21 213.67-21.85 212.52-22.33 211.37-22.8 210.12-22.8L210.12-22.8Q208.82-22.8 207.7-22.33 206.57-21.85 205.72-21 204.87-20.15 204.37-18.93 203.87-17.7 203.87-16.15L203.87-16.15Q203.87-14.65 204.37-13.4 204.87-12.15 205.75-11.25 206.62-10.35 207.75-9.88 208.87-9.4 210.12-9.4ZM210.72 9.75L210.72 9.75Q212.72 9.75 214.37 9.22 216.02 8.7 217.17 7.85 218.32 7 218.95 5.93 219.57 4.85 219.57 3.7L219.57 3.7Q219.57 1.7 218.15 0.88 216.72 0.05 214.02 0.05L214.02 0.05 208.87 0.05Q208.47 0.05 207.65-0.03 206.82-0.1 205.87-0.35L205.87-0.35Q204.22 0.8 203.47 2.1 202.72 3.4 202.72 4.7L202.72 4.7Q202.72 6.95 204.8 8.35 206.87 9.75 210.72 9.75ZM239.52 0L237.22 0 237.22-32.95 239.52-32.95 239.52-18.5 257.17-18.5 257.17-32.95 259.47-32.95 259.47 0 257.17 0 257.17-16.5 239.52-16.5 239.52 0ZM278.01 0.6L278.01 0.6Q275.71 0.6 273.69-0.25 271.67-1.1 270.17-2.73 268.67-4.35 267.79-6.68 266.92-9 266.92-11.95L266.92-11.95Q266.92-14.9 267.79-17.25 268.67-19.6 270.14-21.23 271.62-22.85 273.49-23.73 275.37-24.6 277.37-24.6L277.37-24.6Q281.67-24.6 284.12-21.7 286.56-18.8 286.56-13.5L286.56-13.5Q286.56-13.05 286.56-12.6 286.56-12.15 286.46-11.7L286.46-11.7 269.17-11.7Q269.21-9.45 269.87-7.53 270.51-5.6 271.69-4.23 272.87-2.85 274.51-2.08 276.17-1.3 278.21-1.3L278.21-1.3Q280.17-1.3 281.74-1.88 283.31-2.45 284.67-3.45L284.67-3.45 285.56-1.75Q284.12-0.9 282.39-0.15 280.67 0.6 278.01 0.6ZM269.17-13.5L269.17-13.5 284.46-13.5Q284.46-18.15 282.56-20.43 280.67-22.7 277.42-22.7L277.42-22.7Q275.87-22.7 274.46-22.08 273.06-21.45 271.94-20.25 270.81-19.05 270.09-17.35 269.37-15.65 269.17-13.5ZM297.56 0.6L297.56 0.6Q296.11 0.6 294.86 0.2 293.61-0.2 292.66-1 291.71-1.8 291.16-3.05 290.61-4.3 290.61-6L290.61-6Q290.61-10 294.34-12.08 298.06-14.15 306.11-15.05L306.11-15.05Q306.11-16.4 305.91-17.78 305.71-19.15 305.06-20.23 304.41-21.3 303.31-21.98 302.21-22.65 300.41-22.65L300.41-22.65Q298.01-22.65 296.01-21.7 294.01-20.75 292.76-19.85L292.76-19.85 291.76-21.5Q292.41-21.95 293.34-22.5 294.26-23.05 295.41-23.5 296.56-23.95 297.91-24.28 299.26-24.6 300.71-24.6L300.71-24.6Q302.81-24.6 304.26-23.88 305.71-23.15 306.61-21.9 307.51-20.65 307.91-18.98 308.31-17.3 308.31-15.35L308.31-15.35 308.31 0 306.41 0 306.21-3.1 306.06-3.1Q304.21-1.65 302.09-0.53 299.96 0.6 297.56 0.6ZM297.96-1.3L297.96-1.3Q300.06-1.3 301.96-2.3 303.86-3.3 306.11-5.2L306.11-5.2 306.11-13.35Q302.41-12.9 299.86-12.25 297.31-11.6 295.76-10.7 294.21-9.8 293.54-8.65 292.86-7.5 292.86-6.1L292.86-6.1Q292.86-4.8 293.26-3.9 293.66-3 294.36-2.43 295.06-1.85 295.99-1.58 296.91-1.3 297.96-1.3ZM319.81 0.6L319.81 0.6Q316.86 0.6 316.86-3.2L316.86-3.2 316.86-35.95 319.06-35.95 319.06-2.9Q319.06-2.1 319.36-1.73 319.66-1.35 320.11-1.35L320.11-1.35Q320.26-1.35 320.44-1.35 320.61-1.35 321.01-1.45L321.01-1.45 321.41 0.35Q321.06 0.45 320.71 0.53 320.36 0.6 319.81 0.6ZM335.26 0.6L335.26 0.6Q333.51 0.6 332.36 0.08 331.21-0.45 330.51-1.4 329.81-2.35 329.53-3.7 329.26-5.05 329.26-6.65L329.26-6.65 329.26-22.1 325.51-22.1 325.51-23.8 329.31-24 329.61-30.95 331.51-30.95 331.51-24 338.46-24 338.46-22.1 331.51-22.1 331.51-6.45Q331.51-5.3 331.68-4.38 331.86-3.45 332.31-2.78 332.76-2.1 333.53-1.73 334.31-1.35 335.56-1.35L335.56-1.35Q336.26-1.35 337.08-1.58 337.91-1.8 338.56-2.1L338.56-2.1 339.16-0.3Q338.11 0.1 337.06 0.35 336.01 0.6 335.26 0.6ZM346.51 0L344.31 0 344.31-35.95 346.51-35.95 346.51-20.25Q348.41-22.15 350.36-23.38 352.31-24.6 354.81-24.6L354.81-24.6Q358.56-24.6 360.31-22.35 362.06-20.1 362.06-15.4L362.06-15.4 362.06 0 359.86 0 359.86-15.1Q359.86-18.95 358.58-20.78 357.31-22.6 354.36-22.6L354.36-22.6Q352.21-22.6 350.46-21.48 348.71-20.35 346.51-18.1L346.51-18.1 346.51 0Z" opacity="1" transform="matrix(1,0,0,1,0,0)" fill="black" class="slogan-text-1" id="SvgjsPath1686"></path></svg></g></svg></g></svg></g></svg></g><g transform="matrix(1,0,0,1,160.95078773764843,0)"><svg viewBox="0 0 73.61842452470314 126.88752425463083" height="126.88752425463083" width="73.61842452470314"><g><svg xmlns="http://www.w3.org/2000/svg" xmlns:xlink="http://www.w3.org/1999/xlink" version="1.1" x="0" y="0" viewBox="21.679106830508623 1 56.85827385947761 98" enable-background="new 0 0 100 100" xml:space="preserve" height="126.88752425463083" width="73.61842452470314" class="icon-icon-0" data-fill-palette-color="accent" id="SvgjsSvg1685"><g fill="white"><path fill-rule="evenodd" clip-rule="evenodd" d="M30.545 28.822c-1.165 7.217 0.33 14.85 6.5 19.041C30.758 19.81 45.756 8.664 59.646 1c-16.18 23.046 16.896 23.644 18.777 50.13C80.028 73.71 64.507 91.317 46.639 99c0.206-22.825-22.55-25.933-24.838-44.603C20.905 47.094 25.062 33.766 30.545 28.822z" fill="white"></path></g></svg></g></svg></g><g></g></svg></g><defs><mask></mask></defs><mask><g id="SvgjsG1684"><svg viewBox="0 0 395.52 258.69074372796615" height="258.69074372796615" width="395.52"><g><svg viewBox="0 0 395.52 258.69074372796615" height="258.69074372796615" width="395.52"><g transform="matrix(1,0,0,1,0,131.80321947333536)"><svg viewBox="0 0 395.52 126.88752425463082" height="126.88752425463082" width="395.52"><g id="SvgjsG1683"><svg viewBox="0 0 395.52 126.88752425463082" height="126.88752425463082" width="395.52" id="SvgjsSvg1682"><g><svg viewBox="0 0 395.52 81.18429451520201" height="81.18429451520201" width="395.52"><g transform="matrix(1,0,0,1,0,0)"><svg width="395.52" viewBox="1.3416200000000016 -20.500149999999998 231.72666 47.56412" height="81.18429451520201" data-palette-color="url(#221d12a0-6b59-4550-aa5a-b0b4f47164b1)"><path d="M26.015 18.676l-14.749-30.338-5.635 25.904-4.289-0.933 7.354-33.809 3.626 0.788 14.916 30.928 5.74-26.383 4.279 0.931-7.344 33.76zM43.087 21.593l-4.332-0.71 5.595-34.145 4.332 0.71zM75.412 25.468l-23.53-2.751 4.017-34.366 4.361 0.51-3.565 30.493 19.17 2.24zM85.533 22.066l19.068 1.105-0.225 3.893-23.451-1.358 2.001-34.542 23.011 1.332-0.225 3.894-18.629-1.079-0.648 11.191 16.203 0.939-0.211 3.644-16.203-0.939zM135.885-7.818l0.031 3.899-11.94 0.095 0.242 30.699-4.38 0.034-0.242-30.699-11.939 0.094-0.031-3.9zM145.968 22.253l19.06-1.235 0.252 3.892-23.441 1.519-2.237-34.528 23.002-1.49 0.252 3.892-18.621 1.206 0.725 11.187 16.196-1.049 0.236 3.642-16.196 1.049zM167.54 6.887v0c-0.279-2.095-0.188-4.198 0.27-6.311 0.453-2.105 1.27-4.08 2.45-5.924 1.18-1.845 2.72-3.395 4.618-4.65 1.898-1.254 4.135-2.053 6.713-2.395v0c3.06-0.407 5.78-0.056 8.16 1.053 2.374 1.11 4.238 2.691 5.594 4.744v0l-3.135 2.677c-0.867-1.358-1.882-2.396-3.047-3.116-1.158-0.714-2.364-1.165-3.62-1.355-1.257-0.196-2.463-0.217-3.62-0.063v0c-1.903 0.253-3.534 0.863-4.891 1.831-1.364 0.968-2.46 2.163-3.287 3.584-0.827 1.421-1.385 2.962-1.675 4.621-0.284 1.659-0.319 3.294-0.104 4.907v0c0.236 1.771 0.76 3.44 1.574 5.006 0.813 1.56 1.835 2.897 3.065 4.011 1.231 1.114 2.619 1.945 4.165 2.493 1.546 0.548 3.171 0.708 4.876 0.481v0c1.196-0.159 2.394-0.53 3.594-1.113 1.2-0.583 2.29-1.391 3.27-2.422 0.973-1.031 1.688-2.299 2.147-3.806v0l3.882 1.501c-0.48 1.799-1.381 3.395-2.703 4.788-1.322 1.386-2.854 2.508-4.596 3.365-1.736 0.85-3.49 1.392-5.262 1.628v0c-2.353 0.313-4.578 0.094-6.674-0.656-2.098-0.757-3.977-1.886-5.636-3.387-1.659-1.501-3.025-3.253-4.099-5.255-1.067-2.004-1.743-4.082-2.029-6.237zM221.939-19.467l4.304-0.866 6.825 33.921-4.303 0.865-3.105-15.43-18.676 3.758 3.105 15.43-4.304 0.866-6.825-33.92 4.304-0.866 2.951 14.666 18.675-3.758z" opacity="1" transform="matrix(1,0,0,1,0,0)" fill="black" class="wordmark-text-0" id="SvgjsPath1681"></path></svg></g></svg></g><g transform="matrix(1,0,0,1,118.31980799999998,105.7627706087246)"><svg viewBox="0 0 158.88038400000002 21.12475364590623" height="21.12475364590623" width="158.88038400000002"><g transform="matrix(1,0,0,1,0,0)"><svg width="158.88038400000002" viewBox="4.85 -35.95 357.21 47.5" height="21.12475364590623" data-palette-color="#2ecc40"><path d="M12.55 0L4.85 0 4.85-32.95 12.5-32.95Q16.3-32.95 19.13-31.8 21.95-30.65 23.8-28.5 25.65-26.35 26.55-23.35 27.45-20.35 27.45-16.6L27.45-16.6Q27.45-12.85 26.55-9.78 25.65-6.7 23.8-4.53 21.95-2.35 19.15-1.18 16.35 0 12.55 0L12.55 0ZM7.15-31L7.15-1.95 12.25-1.95Q15.6-1.95 18.03-3.03 20.45-4.1 22-6.05 23.55-8 24.3-10.68 25.05-13.35 25.05-16.6L25.05-16.6Q25.05-19.8 24.3-22.45 23.55-25.1 22-27 20.45-28.9 18.03-29.95 15.6-31 12.25-31L12.25-31 7.15-31ZM37 0L34.8 0 34.8-24 37-24 37 0ZM35.95-29.8L35.95-29.8Q35.1-29.8 34.52-30.35 33.95-30.9 33.95-31.75L33.95-31.75Q33.95-32.7 34.52-33.23 35.1-33.75 35.95-33.75L35.95-33.75Q36.8-33.75 37.37-33.23 37.95-32.7 37.95-31.75L37.95-31.75Q37.95-30.9 37.37-30.35 36.8-29.8 35.95-29.8ZM54.1 11.55L54.1 11.55Q49.55 11.55 46.9 9.75 44.25 7.95 44.25 4.9L44.25 4.9Q44.25 3.3 45.2 1.8 46.15 0.3 47.8-0.9L47.8-0.9 47.8-1.1Q46.9-1.65 46.3-2.6 45.7-3.55 45.7-4.95L45.7-4.95Q45.7-6.55 46.6-7.68 47.5-8.8 48.3-9.35L48.3-9.35 48.3-9.55Q47.15-10.55 46.22-12.25 45.3-13.95 45.3-16.15L45.3-16.15Q45.3-18 45.95-19.55 46.6-21.1 47.75-22.23 48.9-23.35 50.45-23.98 52-24.6 53.75-24.6L53.75-24.6Q54.75-24.6 55.55-24.43 56.35-24.25 56.9-24L56.9-24 65.05-24 65.05-22.15 59.45-22.15Q60.59-21.15 61.35-19.58 62.1-18 62.1-16.1L62.1-16.1Q62.1-14.25 61.45-12.7 60.8-11.15 59.67-10.03 58.55-8.9 57.02-8.28 55.5-7.65 53.75-7.65L53.75-7.65Q52.75-7.65 51.67-7.9 50.6-8.15 49.75-8.65L49.75-8.65Q48.95-8 48.37-7.2 47.8-6.4 47.8-5.2L47.8-5.2Q47.8-3.9 48.75-2.98 49.7-2.05 52.4-2.05L52.4-2.05 57.55-2.05Q61.6-2.05 63.52-0.73 65.45 0.6 65.45 3.45L65.45 3.45Q65.45 5 64.65 6.48 63.85 7.95 62.37 9.08 60.9 10.2 58.8 10.88 56.7 11.55 54.1 11.55ZM53.75-9.4L53.75-9.4Q55-9.4 56.12-9.88 57.25-10.35 58.09-11.25 58.95-12.15 59.45-13.4 59.95-14.65 59.95-16.15L59.95-16.15Q59.95-17.65 59.45-18.9 58.95-20.15 58.12-21 57.3-21.85 56.15-22.33 55-22.8 53.75-22.8L53.75-22.8Q52.45-22.8 51.32-22.33 50.2-21.85 49.35-21 48.5-20.15 48-18.93 47.5-17.7 47.5-16.15L47.5-16.15Q47.5-14.65 48-13.4 48.5-12.15 49.37-11.25 50.25-10.35 51.37-9.88 52.5-9.4 53.75-9.4ZM54.35 9.75L54.35 9.75Q56.35 9.75 58 9.22 59.65 8.7 60.8 7.85 61.95 7 62.57 5.93 63.2 4.85 63.2 3.7L63.2 3.7Q63.2 1.7 61.77 0.88 60.34 0.05 57.65 0.05L57.65 0.05 52.5 0.05Q52.1 0.05 51.27-0.03 50.45-0.1 49.5-0.35L49.5-0.35Q47.85 0.8 47.1 2.1 46.35 3.4 46.35 4.7L46.35 4.7Q46.35 6.95 48.42 8.35 50.5 9.75 54.35 9.75ZM72.79 0L70.59 0 70.59-24 72.79-24 72.79 0ZM71.74-29.8L71.74-29.8Q70.89-29.8 70.32-30.35 69.74-30.9 69.74-31.75L69.74-31.75Q69.74-32.7 70.32-33.23 70.89-33.75 71.74-33.75L71.74-33.75Q72.59-33.75 73.17-33.23 73.74-32.7 73.74-31.75L73.74-31.75Q73.74-30.9 73.17-30.35 72.59-29.8 71.74-29.8ZM88.59 0.6L88.59 0.6Q86.84 0.6 85.69 0.08 84.54-0.45 83.84-1.4 83.14-2.35 82.87-3.7 82.59-5.05 82.59-6.65L82.59-6.65 82.59-22.1 78.84-22.1 78.84-23.8 82.64-24 82.94-30.95 84.84-30.95 84.84-24 91.79-24 91.79-22.1 84.84-22.1 84.84-6.45Q84.84-5.3 85.02-4.38 85.19-3.45 85.64-2.78 86.09-2.1 86.87-1.73 87.64-1.35 88.89-1.35L88.89-1.35Q89.59-1.35 90.42-1.58 91.24-1.8 91.89-2.1L91.89-2.1 92.49-0.3Q91.44 0.1 90.39 0.35 89.34 0.6 88.59 0.6ZM101.79 0.6L101.79 0.6Q100.34 0.6 99.09 0.2 97.84-0.2 96.89-1 95.94-1.8 95.39-3.05 94.84-4.3 94.84-6L94.84-6Q94.84-10 98.56-12.08 102.29-14.15 110.34-15.05L110.34-15.05Q110.34-16.4 110.14-17.78 109.94-19.15 109.29-20.23 108.64-21.3 107.54-21.98 106.44-22.65 104.64-22.65L104.64-22.65Q102.24-22.65 100.24-21.7 98.24-20.75 96.99-19.85L96.99-19.85 95.99-21.5Q96.64-21.95 97.56-22.5 98.49-23.05 99.64-23.5 100.79-23.95 102.14-24.28 103.49-24.6 104.94-24.6L104.94-24.6Q107.04-24.6 108.49-23.88 109.94-23.15 110.84-21.9 111.74-20.65 112.14-18.98 112.54-17.3 112.54-15.35L112.54-15.35 112.54 0 110.64 0 110.44-3.1 110.29-3.1Q108.44-1.65 106.31-0.53 104.19 0.6 101.79 0.6ZM102.19-1.3L102.19-1.3Q104.29-1.3 106.19-2.3 108.09-3.3 110.34-5.2L110.34-5.2 110.34-13.35Q106.64-12.9 104.09-12.25 101.54-11.6 99.99-10.7 98.44-9.8 97.76-8.65 97.09-7.5 97.09-6.1L97.09-6.1Q97.09-4.8 97.49-3.9 97.89-3 98.59-2.43 99.29-1.85 100.21-1.58 101.14-1.3 102.19-1.3ZM124.04 0.6L124.04 0.6Q121.09 0.6 121.09-3.2L121.09-3.2 121.09-35.95 123.29-35.95 123.29-2.9Q123.29-2.1 123.59-1.73 123.89-1.35 124.34-1.35L124.34-1.35Q124.49-1.35 124.66-1.35 124.84-1.35 125.24-1.45L125.24-1.45 125.64 0.35Q125.29 0.45 124.94 0.53 124.59 0.6 124.04 0.6ZM135.13 0L132.93 0 132.93-24 135.13-24 135.13 0ZM134.08-29.8L134.08-29.8Q133.23-29.8 132.66-30.35 132.08-30.9 132.08-31.75L132.08-31.75Q132.08-32.7 132.66-33.23 133.23-33.75 134.08-33.75L134.08-33.75Q134.93-33.75 135.51-33.23 136.08-32.7 136.08-31.75L136.08-31.75Q136.08-30.9 135.51-30.35 134.93-29.8 134.08-29.8ZM158.68 0L141.13 0 141.13-1.2 155.33-22.1 142.68-22.1 142.68-24 158.18-24 158.18-22.85 144.03-1.95 158.68-1.95 158.68 0ZM166.78 0L164.58 0 164.58-24 166.78-24 166.78 0ZM165.73-29.8L165.73-29.8Q164.88-29.8 164.3-30.35 163.73-30.9 163.73-31.75L163.73-31.75Q163.73-32.7 164.3-33.23 164.88-33.75 165.73-33.75L165.73-33.75Q166.58-33.75 167.15-33.23 167.73-32.7 167.73-31.75L167.73-31.75Q167.73-30.9 167.15-30.35 166.58-29.8 165.73-29.8ZM178.23 0L176.03 0 176.03-24 177.93-24 178.13-20.3 178.28-20.3Q180.13-22.15 182.08-23.38 184.03-24.6 186.53-24.6L186.53-24.6Q190.28-24.6 192.03-22.35 193.78-20.1 193.78-15.4L193.78-15.4 193.78 0 191.58 0 191.58-15.1Q191.58-18.95 190.3-20.78 189.03-22.6 186.08-22.6L186.08-22.6Q183.93-22.6 182.18-21.48 180.43-20.35 178.23-18.1L178.23-18.1 178.23 0ZM210.47 11.55L210.47 11.55Q205.92 11.55 203.27 9.75 200.62 7.95 200.62 4.9L200.62 4.9Q200.62 3.3 201.57 1.8 202.52 0.3 204.17-0.9L204.17-0.9 204.17-1.1Q203.27-1.65 202.67-2.6 202.07-3.55 202.07-4.95L202.07-4.95Q202.07-6.55 202.97-7.68 203.87-8.8 204.67-9.35L204.67-9.35 204.67-9.55Q203.52-10.55 202.6-12.25 201.67-13.95 201.67-16.15L201.67-16.15Q201.67-18 202.32-19.55 202.97-21.1 204.12-22.23 205.27-23.35 206.82-23.98 208.37-24.6 210.12-24.6L210.12-24.6Q211.12-24.6 211.92-24.43 212.72-24.25 213.27-24L213.27-24 221.42-24 221.42-22.15 215.82-22.15Q216.97-21.15 217.72-19.58 218.47-18 218.47-16.1L218.47-16.1Q218.47-14.25 217.82-12.7 217.17-11.15 216.05-10.03 214.92-8.9 213.4-8.28 211.87-7.65 210.12-7.65L210.12-7.65Q209.12-7.65 208.05-7.9 206.97-8.15 206.12-8.65L206.12-8.65Q205.32-8 204.75-7.2 204.17-6.4 204.17-5.2L204.17-5.2Q204.17-3.9 205.12-2.98 206.07-2.05 208.77-2.05L208.77-2.05 213.92-2.05Q217.97-2.05 219.9-0.73 221.82 0.6 221.82 3.45L221.82 3.45Q221.82 5 221.02 6.48 220.22 7.95 218.75 9.08 217.27 10.2 215.17 10.88 213.07 11.55 210.47 11.55ZM210.12-9.4L210.12-9.4Q211.37-9.4 212.5-9.88 213.62-10.35 214.47-11.25 215.32-12.15 215.82-13.4 216.32-14.65 216.32-16.15L216.32-16.15Q216.32-17.65 215.82-18.9 215.32-20.15 214.5-21 213.67-21.85 212.52-22.33 211.37-22.8 210.12-22.8L210.12-22.8Q208.82-22.8 207.7-22.33 206.57-21.85 205.72-21 204.87-20.15 204.37-18.93 203.87-17.7 203.87-16.15L203.87-16.15Q203.87-14.65 204.37-13.4 204.87-12.15 205.75-11.25 206.62-10.35 207.75-9.88 208.87-9.4 210.12-9.4ZM210.72 9.75L210.72 9.75Q212.72 9.75 214.37 9.22 216.02 8.7 217.17 7.85 218.32 7 218.95 5.93 219.57 4.85 219.57 3.7L219.57 3.7Q219.57 1.7 218.15 0.88 216.72 0.05 214.02 0.05L214.02 0.05 208.87 0.05Q208.47 0.05 207.65-0.03 206.82-0.1 205.87-0.35L205.87-0.35Q204.22 0.8 203.47 2.1 202.72 3.4 202.72 4.7L202.72 4.7Q202.72 6.95 204.8 8.35 206.87 9.75 210.72 9.75ZM239.52 0L237.22 0 237.22-32.95 239.52-32.95 239.52-18.5 257.17-18.5 257.17-32.95 259.47-32.95 259.47 0 257.17 0 257.17-16.5 239.52-16.5 239.52 0ZM278.01 0.6L278.01 0.6Q275.71 0.6 273.69-0.25 271.67-1.1 270.17-2.73 268.67-4.35 267.79-6.68 266.92-9 266.92-11.95L266.92-11.95Q266.92-14.9 267.79-17.25 268.67-19.6 270.14-21.23 271.62-22.85 273.49-23.73 275.37-24.6 277.37-24.6L277.37-24.6Q281.67-24.6 284.12-21.7 286.56-18.8 286.56-13.5L286.56-13.5Q286.56-13.05 286.56-12.6 286.56-12.15 286.46-11.7L286.46-11.7 269.17-11.7Q269.21-9.45 269.87-7.53 270.51-5.6 271.69-4.23 272.87-2.85 274.51-2.08 276.17-1.3 278.21-1.3L278.21-1.3Q280.17-1.3 281.74-1.88 283.31-2.45 284.67-3.45L284.67-3.45 285.56-1.75Q284.12-0.9 282.39-0.15 280.67 0.6 278.01 0.6ZM269.17-13.5L269.17-13.5 284.46-13.5Q284.46-18.15 282.56-20.43 280.67-22.7 277.42-22.7L277.42-22.7Q275.87-22.7 274.46-22.08 273.06-21.45 271.94-20.25 270.81-19.05 270.09-17.35 269.37-15.65 269.17-13.5ZM297.56 0.6L297.56 0.6Q296.11 0.6 294.86 0.2 293.61-0.2 292.66-1 291.71-1.8 291.16-3.05 290.61-4.3 290.61-6L290.61-6Q290.61-10 294.34-12.08 298.06-14.15 306.11-15.05L306.11-15.05Q306.11-16.4 305.91-17.78 305.71-19.15 305.06-20.23 304.41-21.3 303.31-21.98 302.21-22.65 300.41-22.65L300.41-22.65Q298.01-22.65 296.01-21.7 294.01-20.75 292.76-19.85L292.76-19.85 291.76-21.5Q292.41-21.95 293.34-22.5 294.26-23.05 295.41-23.5 296.56-23.95 297.91-24.28 299.26-24.6 300.71-24.6L300.71-24.6Q302.81-24.6 304.26-23.88 305.71-23.15 306.61-21.9 307.51-20.65 307.91-18.98 308.31-17.3 308.31-15.35L308.31-15.35 308.31 0 306.41 0 306.21-3.1 306.06-3.1Q304.21-1.65 302.09-0.53 299.96 0.6 297.56 0.6ZM297.96-1.3L297.96-1.3Q300.06-1.3 301.96-2.3 303.86-3.3 306.11-5.2L306.11-5.2 306.11-13.35Q302.41-12.9 299.86-12.25 297.31-11.6 295.76-10.7 294.21-9.8 293.54-8.65 292.86-7.5 292.86-6.1L292.86-6.1Q292.86-4.8 293.26-3.9 293.66-3 294.36-2.43 295.06-1.85 295.99-1.58 296.91-1.3 297.96-1.3ZM319.81 0.6L319.81 0.6Q316.86 0.6 316.86-3.2L316.86-3.2 316.86-35.95 319.06-35.95 319.06-2.9Q319.06-2.1 319.36-1.73 319.66-1.35 320.11-1.35L320.11-1.35Q320.26-1.35 320.44-1.35 320.61-1.35 321.01-1.45L321.01-1.45 321.41 0.35Q321.06 0.45 320.71 0.53 320.36 0.6 319.81 0.6ZM335.26 0.6L335.26 0.6Q333.51 0.6 332.36 0.08 331.21-0.45 330.51-1.4 329.81-2.35 329.53-3.7 329.26-5.05 329.26-6.65L329.26-6.65 329.26-22.1 325.51-22.1 325.51-23.8 329.31-24 329.61-30.95 331.51-30.95 331.51-24 338.46-24 338.46-22.1 331.51-22.1 331.51-6.45Q331.51-5.3 331.68-4.38 331.86-3.45 332.31-2.78 332.76-2.1 333.53-1.73 334.31-1.35 335.56-1.35L335.56-1.35Q336.26-1.35 337.08-1.58 337.91-1.8 338.56-2.1L338.56-2.1 339.16-0.3Q338.11 0.1 337.06 0.35 336.01 0.6 335.26 0.6ZM346.51 0L344.31 0 344.31-35.95 346.51-35.95 346.51-20.25Q348.41-22.15 350.36-23.38 352.31-24.6 354.81-24.6L354.81-24.6Q358.56-24.6 360.31-22.35 362.06-20.1 362.06-15.4L362.06-15.4 362.06 0 359.86 0 359.86-15.1Q359.86-18.95 358.58-20.78 357.31-22.6 354.36-22.6L354.36-22.6Q352.21-22.6 350.46-21.48 348.71-20.35 346.51-18.1L346.51-18.1 346.51 0Z" opacity="1" transform="matrix(1,0,0,1,0,0)" fill="black" class="slogan-text-1" id="SvgjsPath1680"></path></svg></g></svg></g></svg></g></svg></g><g transform="matrix(1,0,0,1,160.95078773764843,0)"><svg viewBox="0 0 73.61842452470314 126.88752425463083" height="126.88752425463083" width="73.61842452470314"><g><svg xmlns="http://www.w3.org/2000/svg" xmlns:xlink="http://www.w3.org/1999/xlink" version="1.1" x="0" y="0" viewBox="21.679106830508623 1 56.85827385947761 98" enable-background="new 0 0 100 100" xml:space="preserve" height="126.88752425463083" width="73.61842452470314" class="icon-icon-0" data-fill-palette-color="accent" id="SvgjsSvg1679"><g fill="black"><path fill-rule="evenodd" clip-rule="evenodd" d="M30.545 28.822c-1.165 7.217 0.33 14.85 6.5 19.041C30.758 19.81 45.756 8.664 59.646 1c-16.18 23.046 16.896 23.644 18.777 50.13C80.028 73.71 64.507 91.317 46.639 99c0.206-22.825-22.55-25.933-24.838-44.603C20.905 47.094 25.062 33.766 30.545 28.822z" fill="black"></path></g></svg></g></svg></g><g></g></svg></g><defs><mask></mask></defs></svg><rect width="395.52" height="258.69074372796615" fill="black" stroke="none" visibility="hidden"></rect></g></mask></svg><rect width="395.52" height="258.69074372796615" fill="black" stroke="none" visibility="hidden"></rect></g></mask><linearGradient x1="0" x2="1" y1="0.578" y2="0.595" id="7f8d75d0-5897-4b36-8e84-901b24fb8a5a"><stop stop-color="#6ee2f5" offset="0"></stop><stop stop-color="#6454f0" offset="1"></stop></linearGradient><rect width="395.52" height="258.69074372796615" fill="#ffffff" mask="url(#5743af0e-9c57-4a6b-b3ec-fe149ed1f954)" data-fill-palette-color="accent"></rect></svg><rect width="395.52" height="258.69074372796615" fill="none" stroke="none" visibility="hidden"></rect></g></svg></g></svg>